<?xml version="1.0" standalone="no"?>
<!DOCTYPE svg PUBLIC "-//W3C//DTD SVG 20010904//EN"
 "http://www.w3.org/TR/2001/REC-SVG-20010904/DTD/svg10.dtd">
<svg version="1.0" xmlns="http://www.w3.org/2000/svg"
 width="700.000000pt" height="700.000000pt" viewBox="0 0 700.000000 700.000000"
 preserveAspectRatio="xMidYMid meet">
<metadata>
Created by potrace 1.11, written by Peter Selinger 2001-2013
</metadata>
<g transform="translate(0.000000,700.000000) scale(0.100000,-0.100000)"
fill="#000000" stroke="none">
<path d="M3129 6995 c-2 -1 -31 -6 -64 -10 -33 -3 -69 -8 -80 -11 -11 -2 -31
-6 -45 -8 -224 -38 -544 -129 -720 -203 -222 -95 -344 -206 -354 -323 -8 -95
36 -159 121 -179 82 -19 108 -21 275 -26 182 -6 208 -9 254 -31 40 -19 58 -46
90 -130 59 -158 52 -239 -30 -349 -29 -38 -62 -85 -72 -103 -13 -23 -39 -44
-79 -64 -62 -32 -262 -154 -281 -172 -6 -6 -26 -22 -44 -36 -32 -24 -68 -53
-119 -95 -47 -40 -188 -181 -240 -242 -34 -40 -62 -63 -75 -63 -12 0 -53 -9
-93 -20 -77 -20 -118 -18 -173 10 -44 23 -75 56 -94 100 -15 38 -14 113 3 133
5 7 22 53 36 102 37 124 39 257 6 333 -24 54 -74 106 -120 124 -146 58 -329
-111 -578 -534 -217 -368 -278 -581 -207 -720 17 -34 72 -76 105 -81 55 -9
132 37 249 149 117 111 138 129 178 151 33 17 43 18 87 8 98 -22 218 -107 243
-172 6 -15 15 -62 21 -104 10 -76 10 -78 -33 -210 -82 -248 -113 -445 -114
-725 l-1 -162 -55 -83 c-99 -151 -105 -158 -154 -183 -119 -60 -248 -22 -301
90 -63 135 -86 175 -133 238 -177 237 -439 254 -514 34 -26 -74 -25 -312 1
-438 3 -14 7 -36 10 -50 4 -22 16 -81 31 -150 2 -14 22 -92 44 -175 123 -475
275 -724 453 -741 148 -14 192 69 202 381 8 256 19 291 105 335 80 41 134 54
226 54 81 1 94 -2 126 -24 19 -14 68 -47 108 -75 60 -41 77 -59 102 -110 69
-135 196 -327 291 -439 51 -59 196 -207 255 -259 23 -21 42 -45 43 -55 1 -39
10 -88 24 -135 19 -64 19 -103 0 -158 -19 -54 -49 -86 -100 -110 -55 -26 -88
-24 -177 11 -228 89 -414 70 -501 -50 -40 -56 -43 -121 -11 -188 24 -49 111
-147 174 -197 277 -218 667 -426 865 -462 191 -35 336 78 269 210 -23 45 -78
110 -199 238 -62 66 -106 137 -101 163 18 85 64 173 121 229 37 37 54 47 93
52 57 8 72 11 139 24 45 9 60 7 120 -14 82 -29 207 -66 243 -71 14 -2 45 -9
70 -14 160 -34 244 -42 465 -44 l190 -2 65 -42 c126 -80 138 -91 166 -147 46
-95 32 -195 -35 -259 -16 -16 -62 -42 -103 -60 -105 -46 -190 -101 -257 -167
-134 -131 -162 -289 -70 -393 57 -65 133 -87 292 -87 65 1 122 3 125 5 4 2 32
7 63 10 61 7 91 12 117 20 9 3 37 8 62 11 73 10 343 82 471 125 352 117 509
236 525 396 7 76 -15 120 -77 151 -65 33 -115 39 -369 47 -148 5 -204 18 -239
55 -62 67 -109 271 -81 355 6 21 39 73 72 117 50 66 71 85 117 107 142 67 331
192 478 317 87 75 167 155 284 288 33 37 66 50 183 71 40 7 120 -22 157 -58
64 -62 73 -120 34 -218 -54 -139 -72 -267 -51 -368 11 -53 57 -121 104 -153
143 -96 317 39 564 437 168 269 274 513 282 647 5 102 -32 184 -98 220 -75 39
-134 7 -330 -178 -143 -134 -173 -144 -285 -94 -78 35 -158 102 -177 147 -8
19 -15 64 -16 101 -2 56 5 86 36 173 41 116 92 318 101 405 1 6 5 42 10 80 4
39 9 84 11 100 4 38 4 275 0 334 -3 39 4 55 57 139 69 109 94 135 156 157 83
29 174 14 229 -38 20 -18 82 -133 82 -151 0 -7 70 -126 89 -150 47 -60 136
-137 188 -161 113 -54 243 -29 300 56 14 21 32 65 39 96 13 55 19 219 10 273
-2 14 -7 52 -11 85 -3 33 -10 76 -15 95 -5 19 -12 53 -15 75 -4 22 -24 111
-46 198 -89 354 -192 600 -300 708 -32 32 -75 66 -96 75 -52 22 -142 22 -180
-1 -27 -15 -63 -67 -70 -98 -14 -70 -21 -139 -22 -230 -3 -202 -17 -294 -49
-330 -9 -11 -44 -31 -77 -47 -139 -64 -286 -70 -350 -14 -17 15 -55 43 -85 64
-39 27 -62 51 -79 86 -123 249 -333 517 -556 711 l-60 52 -26 114 c-28 128
-25 173 19 234 56 79 139 95 254 50 188 -76 381 -69 467 15 152 149 39 330
-368 588 -61 39 -114 70 -120 70 -5 0 -11 3 -13 8 -4 9 -98 61 -213 116 -190
91 -329 124 -435 101 -38 -8 -101 -56 -120 -93 -36 -67 -2 -136 138 -283 152
-160 176 -198 160 -258 -25 -99 -114 -229 -172 -251 -12 -4 -48 -11 -81 -14
-33 -4 -77 -12 -98 -17 -33 -9 -52 -6 -130 19 -262 85 -456 115 -752 116
l-170 1 -105 69 c-58 38 -113 78 -123 90 -54 63 -73 169 -42 242 14 35 79 104
98 104 21 0 165 75 223 116 210 148 271 360 140 480 -29 26 -63 46 -93 54 -42
11 -275 24 -284 15z"/>
</g>
</svg>
