<svg width="83" height="83" viewBox="0 0 83 83" fill="none" xmlns="http://www.w3.org/2000/svg">
<path d="M58.9699 21.6517C59.0266 20.4347 58.8766 19.2169 58.5262 18.05C57.9645 16.3885 59.6308 14.2974 61.5425 15.1848C63.4542 16.0722 66.6216 16.6009 67.8819 14.6845C69.1422 12.768 67.1739 10.6014 61.9201 7.45764C56.6664 4.3139 53.6926 3.78523 52.4323 5.69696C51.172 7.60869 56.336 10.455 56.0056 12.0128C55.6751 13.5705 54.462 15.317 53.315 15.317C52.1679 15.317 49.7559 16.1478 49.7559 16.1478L58.9699 21.6517Z" fill="#7C0A02"/>
<path d="M23.8933 61.3732C23.8366 62.5886 23.9866 63.8049 24.337 64.9701C24.8988 66.6363 23.2325 68.7463 21.3207 67.84C19.409 66.9337 16.2417 66.4239 14.9814 68.3404C13.721 70.2568 15.6894 72.4235 20.9431 75.5672C26.1968 78.7109 29.1706 79.2255 30.4357 77.3279C31.7007 75.4303 26.5273 72.5698 26.8577 71.0121C27.1881 69.4544 28.4012 67.7079 29.5483 67.7079C30.6953 67.7079 33.1074 66.8771 33.1074 66.8771L23.8933 61.3732Z" fill="#7C0A02"/>
<path d="M61.0239 58.8289C62.2409 58.8856 63.4587 58.7356 64.6255 58.3852C66.2871 57.8188 68.4018 59.4851 67.4908 61.3968C66.5798 63.3085 66.0747 66.4759 67.9911 67.7362C69.9076 68.9965 72.0742 67.0329 75.2179 61.7744C78.3617 56.516 78.8762 53.5469 76.9786 52.2866C75.0811 51.0262 72.23 56.1808 70.6628 55.8646C69.0957 55.5483 67.3586 54.3163 67.3586 53.1693C67.3586 52.0222 66.5278 49.6149 66.5278 49.6149L61.0239 58.8289Z" fill="#7C0A02"/>
<path d="M22.0009 24.1487C20.7824 24.1027 19.5648 24.2623 18.3993 24.6207C16.7377 25.1825 14.6466 23.5162 15.534 21.6045C16.4215 19.6927 16.9501 16.5254 15.0337 15.2651C13.1172 14.0047 10.9506 15.9731 7.80686 21.2268C4.66313 26.4805 4.14861 29.4308 6.04618 30.6911C7.94375 31.9514 10.8043 26.7874 12.362 27.1178C13.9197 27.4482 15.6662 28.6613 15.6662 29.8084C15.6662 30.9554 16.4923 33.3628 16.4923 33.3628L22.0009 24.1487Z" fill="#7C0A02"/>
<path d="M40.7405 15.3075C39.7834 14.2566 38.655 13.3755 37.4032 12.7019C35.5623 11.7956 35.2083 8.69437 37.5212 7.84943C39.8342 7.00449 42.8694 4.80482 42.3454 2.18504C41.8215 -0.434741 38.3898 -0.595232 31.4509 1.15129C24.512 2.89781 21.6326 4.92755 22.1613 7.53317C22.69 10.1388 29.3173 8.2365 30.3275 9.79892C31.3376 11.3613 31.7719 13.7923 30.8325 14.7458C29.8932 15.6993 28.5809 18.3663 28.5809 18.3663L40.7405 15.3075Z" fill="#7C0A02"/>
<path d="M42.1712 67.604C43.1298 68.6566 44.2597 69.5392 45.5132 70.2144C47.3541 71.1207 47.7034 74.2219 45.3904 75.0668C43.0775 75.9118 40.047 78.1115 40.571 80.7312C41.0949 83.351 44.5266 83.5162 51.4655 81.7744C58.4044 80.0326 61.2838 77.9982 60.7551 75.3925C60.2264 72.7869 53.5991 74.6845 52.5842 73.1268C51.5694 71.5691 51.1681 69.1334 52.0839 68.1799C52.9996 67.2264 54.3355 64.5547 54.3355 64.5547L42.1712 67.604Z" fill="#7C0A02"/>
<path d="M67.604 40.7406C68.6572 39.7844 69.5399 38.6558 70.2144 37.4034C71.1207 35.5625 74.2219 35.2084 75.0668 37.5214C75.9118 39.8343 78.1115 42.8695 80.7312 42.3456C83.351 41.8216 83.5162 38.3899 81.7744 31.451C80.0326 24.5122 77.9982 21.6328 75.3925 22.1615C72.7869 22.6901 74.6845 29.3175 73.1268 30.3276C71.5691 31.3378 69.1334 31.772 68.1799 30.8327C67.2264 29.8933 64.5547 28.5811 64.5547 28.5811L67.604 40.7406Z" fill="#7C0A02"/>
<path d="M15.3075 42.1709C14.2571 43.1303 13.3761 44.2602 12.7019 45.5129C11.8098 47.3538 8.69437 47.6843 7.84943 45.3902C7.00449 43.0961 4.80482 40.0468 2.18504 40.5707C-0.434741 41.0947 -0.595232 44.5264 1.15129 51.4605C2.89781 58.3947 4.92755 61.2788 7.53317 60.7501C10.1388 60.2214 8.2365 53.5941 9.79892 52.5792C11.3613 51.5644 13.7923 51.1631 14.7458 52.0789C15.6993 52.9946 18.3663 54.3305 18.3663 54.3305L15.3075 42.1709Z" fill="#7C0A02"/>
<path d="M27.3203 43.1008C38.9134 59.2066 63.3694 50.9554 67.0371 30.6911C65.4044 26.8804 62.9359 23.4855 59.8141 20.7575C56.6924 18.0295 52.9972 16.0383 49.0021 14.9311C45.0069 13.8238 40.8139 13.629 36.7333 14.3609C32.6527 15.0927 28.7888 16.7327 25.4274 19.1593C22.2223 24.7576 20.2162 33.2259 27.3203 43.1008Z" fill="#B22222"/>
<path d="M27.321 43.1008C20.2405 33.2259 22.223 24.7576 25.4328 19.1593C21.211 22.2089 17.9365 26.3889 15.9862 31.218C14.036 36.0471 13.4894 41.3288 14.4094 46.4549C15.3295 51.581 17.6787 56.343 21.1865 60.1925C24.6944 64.0419 29.2182 66.8223 34.237 68.2134C39.2558 69.6044 44.5654 69.5496 49.5545 68.0553C54.5435 66.5609 59.0089 63.6878 62.4366 59.7667C65.8642 55.8457 68.1147 51.0362 68.9287 45.8922C69.7427 40.7482 69.0873 35.4789 67.0378 30.6911C63.3701 50.9554 38.9141 59.2066 27.321 43.1008Z" fill="#960018"/>
<path d="M53.8491 21.7225C59.3483 24.7152 65.2629 31.8664 61.1468 34.7458C58.1446 36.8275 54.0568 28.9823 49.7377 26.4428C45.4186 23.9033 41.7557 22.7751 42.1852 20.9625C42.6148 19.1499 48.3452 18.7156 53.8491 21.7225Z" fill="#CD5C5C"/>
<path d="M39.2724 20.2309C39.3007 22.8978 32.376 22.2464 32.1919 20.1459C32.0078 18.0454 39.2535 18.2814 39.2724 20.2309Z" fill="#CD5C5C"/>
<path d="M37.4036 62.9781C40.1175 62.9781 42.3175 60.7781 42.3175 58.0642C42.3175 55.3504 40.1175 53.1504 37.4036 53.1504C34.6898 53.1504 32.4897 55.3504 32.4897 58.0642C32.4897 60.7781 34.6898 62.9781 37.4036 62.9781Z" fill="#7C0A02"/>
<path d="M29.9262 53.9717C30.9377 53.9717 31.7577 53.1517 31.7577 52.1402C31.7577 51.1287 30.9377 50.3087 29.9262 50.3087C28.9147 50.3087 28.0947 51.1287 28.0947 52.1402C28.0947 53.1517 28.9147 53.9717 29.9262 53.9717Z" fill="#7C0A02"/>
<path d="M20.094 45.9141C21.1785 45.9141 22.0577 45.035 22.0577 43.9505C22.0577 42.866 21.1785 41.9868 20.094 41.9868C19.0095 41.9868 18.1304 42.866 18.1304 43.9505C18.1304 45.035 19.0095 45.9141 20.094 45.9141Z" fill="#7C0A02"/>
<path d="M51.3002 46.4475C53.5265 46.4475 55.3314 44.6427 55.3314 42.4164C55.3314 40.19 53.5265 38.3852 51.3002 38.3852C49.0739 38.3852 47.269 40.19 47.269 42.4164C47.269 44.6427 49.0739 46.4475 51.3002 46.4475Z" fill="#960018"/>
<path d="M45.664 38.4277C46.9414 38.4277 47.977 37.3921 47.977 36.1147C47.977 34.8373 46.9414 33.8018 45.664 33.8018C44.3866 33.8018 43.3511 34.8373 43.3511 36.1147C43.3511 37.3921 44.3866 38.4277 45.664 38.4277Z" fill="#960018"/>
<path d="M31.1016 35.5436C31.8759 35.5436 32.5036 34.9159 32.5036 34.1416C32.5036 33.3674 31.8759 32.7397 31.1016 32.7397C30.3274 32.7397 29.6997 33.3674 29.6997 34.1416C29.6997 34.9159 30.3274 35.5436 31.1016 35.5436Z" fill="#960018"/>
<path d="M59.0179 57.6725C60.1884 57.6725 61.1373 56.7236 61.1373 55.553C61.1373 54.3825 60.1884 53.4336 59.0179 53.4336C57.8473 53.4336 56.8984 54.3825 56.8984 55.553C56.8984 56.7236 57.8473 57.6725 59.0179 57.6725Z" fill="#7C0A02"/>
</svg>
