<svg width="345" height="116" viewBox="0 0 345 116" fill="none" xmlns="http://www.w3.org/2000/svg">
<path d="M128.25 21.6516C128.307 20.4347 128.157 19.2169 127.806 18.05C127.245 16.3885 128.911 14.2974 130.823 15.1848C132.735 16.0722 135.902 16.6009 137.162 14.6845C138.423 12.768 136.454 10.6014 131.2 7.45763C125.947 4.3139 122.973 3.78522 121.713 5.69695C120.452 7.60869 125.616 10.455 125.286 12.0127C124.955 13.5705 123.742 15.317 122.595 15.317C121.448 15.317 119.036 16.1478 119.036 16.1478L128.25 21.6516Z" fill="#0077B6"/>
<path d="M93.1736 61.3732C93.1168 62.5886 93.2668 63.8049 93.6173 64.9701C94.179 66.6363 92.5127 68.7463 90.601 67.84C88.6893 66.9337 85.5219 66.4239 84.2616 68.3404C83.0013 70.2568 84.9696 72.4235 90.2234 75.5672C95.4771 78.7109 98.4509 79.2254 99.7159 77.3279C100.981 75.4303 95.8075 72.5698 96.1379 71.0121C96.4684 69.4544 97.6815 67.7078 98.8285 67.7078C99.9756 67.7078 102.388 66.8771 102.388 66.8771L93.1736 61.3732Z" fill="#0077B6"/>
<path d="M130.304 58.8289C131.521 58.8856 132.739 58.7356 133.906 58.3852C135.567 57.8188 137.682 59.4851 136.771 61.3968C135.86 63.3085 135.355 66.4759 137.271 67.7362C139.188 68.9965 141.354 67.0329 144.498 61.7744C147.642 56.516 148.156 53.5469 146.259 52.2866C144.361 51.0262 141.51 56.1808 139.943 55.8646C138.376 55.5483 136.639 54.3163 136.639 53.1693C136.639 52.0222 135.808 49.6149 135.808 49.6149L130.304 58.8289Z" fill="#0077B6"/>
<path d="M91.281 24.1487C90.0625 24.1027 88.8449 24.2622 87.6794 24.6207C86.0179 25.1824 83.9268 23.5162 84.8142 21.6044C85.7016 19.6927 86.2303 16.5254 84.3138 15.265C82.3974 14.0047 80.2308 15.9731 77.087 21.2268C73.9433 26.4805 73.4288 29.4307 75.3263 30.6911C77.2239 31.9514 80.0844 26.7874 81.6421 27.1178C83.1998 27.4482 84.9464 28.6613 84.9464 29.8084C84.9464 30.9554 85.7724 33.3628 85.7724 33.3628L91.281 24.1487Z" fill="#0077B6"/>
<path d="M110.021 15.3075C109.063 14.2566 107.935 13.3755 106.683 12.7019C104.842 11.7956 104.488 8.69437 106.801 7.84943C109.114 7.00449 112.149 4.80482 111.625 2.18504C111.101 -0.434741 107.67 -0.595231 100.731 1.15129C93.7921 2.89781 90.9127 4.92755 91.4413 7.53317C91.97 10.1388 98.5973 8.2365 99.6075 9.79892C100.618 11.3614 101.052 13.7923 100.113 14.7458C99.1732 15.6993 97.861 18.3663 97.861 18.3663L110.021 15.3075Z" fill="#0077B6"/>
<path d="M111.451 67.604C112.41 68.6566 113.54 69.5392 114.793 70.2144C116.634 71.1207 116.983 74.2219 114.671 75.0668C112.358 75.9118 109.327 78.1115 109.851 80.7312C110.375 83.351 113.807 83.5162 120.746 81.7744C127.684 80.0326 130.564 77.9982 130.035 75.3925C129.507 72.7869 122.879 74.6845 121.864 73.1268C120.849 71.5691 120.448 69.1334 121.364 68.1799C122.28 67.2264 123.616 64.5547 123.616 64.5547L111.451 67.604Z" fill="#0077B6"/>
<path d="M136.884 40.7406C137.937 39.7843 138.82 38.6558 139.494 37.4034C140.401 35.5624 143.502 35.2084 144.347 37.5214C145.192 39.8343 147.391 42.8695 150.011 42.3455C152.631 41.8216 152.796 38.3899 151.054 31.451C149.313 24.5121 147.278 21.6328 144.672 22.1614C142.067 22.6901 143.964 29.3174 142.407 30.3276C140.849 31.3377 138.413 31.772 137.46 30.8327C136.506 29.8933 133.835 28.5811 133.835 28.5811L136.884 40.7406Z" fill="#0077B6"/>
<path d="M84.5876 42.1709C83.5371 43.1303 82.6562 44.2602 81.982 45.5129C81.0898 47.3539 77.9744 47.6843 77.1295 45.3902C76.2845 43.0961 74.0848 40.0468 71.4651 40.5707C68.8453 41.0947 68.6848 44.5264 70.4313 51.4605C72.1778 58.3947 74.2076 61.2788 76.8132 60.7501C79.4188 60.2215 77.5165 53.5941 79.079 52.5793C80.6414 51.5644 83.0723 51.1632 84.0259 52.0789C84.9794 52.9946 87.6463 54.3305 87.6463 54.3305L84.5876 42.1709Z" fill="#0077B6"/>
<path d="M96.6005 43.1008C108.194 59.2066 132.65 50.9554 136.317 30.6911C134.685 26.8804 132.216 23.4855 129.094 20.7575C125.973 18.0295 122.277 16.0383 118.282 14.931C114.287 13.8238 110.094 13.6289 106.014 14.3608C101.933 15.0927 98.069 16.7327 94.7077 19.1593C91.5026 24.7576 89.4964 33.2259 96.6005 43.1008Z" fill="#CAF0F8"/>
<path d="M96.6008 43.1008C89.5203 33.2259 91.5029 24.7576 94.7127 19.1593C90.4909 22.2089 87.2163 26.3889 85.2661 31.218C83.3159 36.047 82.7693 41.3288 83.6893 46.4549C84.6093 51.581 86.9586 56.343 90.4664 60.1924C93.9743 64.0419 98.4981 66.8223 103.517 68.2133C108.536 69.6044 113.845 69.5496 118.834 68.0552C123.823 66.5609 128.289 63.6877 131.716 59.7667C135.144 55.8456 137.395 51.0362 138.209 45.8922C139.023 40.7482 138.367 35.4789 136.318 30.6911C132.65 50.9554 108.194 59.2065 96.6008 43.1008Z" fill="#00B4D8"/>
<path d="M123.129 21.7224C128.629 24.7151 134.543 31.8664 130.427 34.7458C127.425 36.8275 123.337 28.9823 119.018 26.4428C114.699 23.9032 111.036 22.7751 111.465 20.9625C111.895 19.1499 117.625 18.7156 123.129 21.7224Z" fill="#588BAE"/>
<path d="M108.553 20.2309C108.581 22.8978 101.656 22.2464 101.472 20.1459C101.288 18.0454 108.534 18.2814 108.553 20.2309Z" fill="#588BAE"/>
<path d="M106.683 62.9781C109.397 62.9781 111.597 60.7781 111.597 58.0642C111.597 55.3504 109.397 53.1504 106.683 53.1504C103.97 53.1504 101.77 55.3504 101.77 58.0642C101.77 60.7781 103.97 62.9781 106.683 62.9781Z" fill="#0077B6"/>
<path d="M99.2064 53.9718C100.218 53.9718 101.038 53.1518 101.038 52.1403C101.038 51.1288 100.218 50.3088 99.2064 50.3088C98.1949 50.3088 97.3749 51.1288 97.3749 52.1403C97.3749 53.1518 98.1949 53.9718 99.2064 53.9718Z" fill="#0077B6"/>
<path d="M89.3739 45.9141C90.4584 45.9141 91.3376 45.035 91.3376 43.9505C91.3376 42.866 90.4584 41.9868 89.3739 41.9868C88.2894 41.9868 87.4103 42.866 87.4103 43.9505C87.4103 45.035 88.2894 45.9141 89.3739 45.9141Z" fill="#0077B6"/>
<path d="M120.58 46.4475C122.806 46.4475 124.611 44.6427 124.611 42.4163C124.611 40.19 122.806 38.3852 120.58 38.3852C118.354 38.3852 116.549 40.19 116.549 42.4163C116.549 44.6427 118.354 46.4475 120.58 46.4475Z" fill="#00B4D8"/>
<path d="M114.944 38.4277C116.222 38.4277 117.257 37.3921 117.257 36.1147C117.257 34.8373 116.222 33.8018 114.944 33.8018C113.667 33.8018 112.631 34.8373 112.631 36.1147C112.631 37.3921 113.667 38.4277 114.944 38.4277Z" fill="#00B4D8"/>
<path d="M100.382 35.5436C101.156 35.5436 101.784 34.9159 101.784 34.1416C101.784 33.3674 101.156 32.7397 100.382 32.7397C99.6073 32.7397 98.9797 33.3674 98.9797 34.1416C98.9797 34.9159 99.6073 35.5436 100.382 35.5436Z" fill="#00B4D8"/>
<path d="M128.298 57.6724C129.468 57.6724 130.417 56.7235 130.417 55.553C130.417 54.3825 129.468 53.4336 128.298 53.4336C127.127 53.4336 126.178 54.3825 126.178 55.553C126.178 56.7235 127.127 57.6724 128.298 57.6724Z" fill="#0077B6"/>
<path d="M62.16 4.44V19.2C56.08 15.68 49.36 13.92 42 13.92C34.64 13.92 28.48 16.44 23.52 21.48C18.64 26.44 16.2 33.12 16.2 41.52C16.2 49.92 18.64 56.6 23.52 61.56C28.48 66.52 34.92 69 42.84 69C50.44 69 56.92 67 62.28 63V78.12C57.32 81.32 50.36 82.92 41.4 82.92C29.4 82.92 19.48 79.16 11.64 71.64C3.88 64.04 0 54 0 41.52C0 29.28 3.84 19.32 11.52 11.64C19.28 3.88 29.24 0 41.4 0C50.28 0 57.2 1.48 62.16 4.44Z" fill="#0077B6"/>
<path d="M228.656 0L200.36 82.92H182.644L154.84 0H171.695L181.906 32.9712C183.956 39.5326 185.802 45.8069 187.442 51.7942C189.083 57.7815 190.231 62.1285 190.887 64.8351L191.748 68.895C193.717 59.709 197.038 47.7344 201.713 32.9712L212.048 0H228.656Z" fill="#FCF7F8"/>
<path d="M241.496 82.92V0H256.997V82.92H241.496Z" fill="#FCF7F8"/>
<path d="M291.104 70.0022H302.053C310.747 70.0022 317.349 67.3366 321.86 62.0055C326.371 56.5923 328.627 49.3747 328.627 40.3528C328.627 32.397 326.207 25.8766 321.368 20.7915C316.611 15.6244 310.091 13.0408 301.807 13.0408H291.104V70.0022ZM275.233 0H302.299C314.684 0 324.813 3.81383 332.687 11.4415C340.56 19.0691 344.497 28.7062 344.497 40.3528C344.497 53.0655 340.683 63.3587 333.056 71.2325C325.428 79.0241 315.176 82.92 302.299 82.92H275.233V0Z" fill="#FCF7F8"/>
<path d="M133.254 94.7485H125.785V115H119.787V94.7485H112.455V90.1172H133.254V94.7485Z" fill="#FCF7F8"/>
<path d="M157.646 106.216H154.399V115H148.4V90.1172H158.193C161.143 90.1172 163.451 90.7723 165.114 92.0825C166.777 93.3927 167.609 95.2441 167.609 97.6367C167.609 99.3685 167.256 100.804 166.549 101.943C165.854 103.083 164.761 104.006 163.268 104.712L168.464 114.744V115H162.038L157.646 106.216ZM154.399 101.584H158.193C159.332 101.584 160.186 101.288 160.756 100.696C161.337 100.092 161.628 99.2546 161.628 98.1836C161.628 97.1126 161.337 96.2752 160.756 95.6714C160.175 95.0562 159.32 94.7485 158.193 94.7485H154.399V101.584Z" fill="#FCF7F8"/>
<path d="M197.965 110.352H189.745L188.31 115H181.901L191.027 90.1172H196.667L205.861 115H199.418L197.965 110.352ZM191.181 105.72H196.53L193.847 97.0898L191.181 105.72Z" fill="#FCF7F8"/>
<path d="M240.045 106.575C239.966 108.306 239.498 109.839 238.644 111.172C237.79 112.493 236.588 113.519 235.038 114.248C233.5 114.977 231.74 115.342 229.757 115.342C226.487 115.342 223.913 114.277 222.033 112.146C220.153 110.015 219.213 107.008 219.213 103.123V101.892C219.213 99.4539 219.634 97.3234 220.477 95.5005C221.332 93.6662 222.557 92.2534 224.152 91.2622C225.747 90.2596 227.593 89.7583 229.689 89.7583C232.708 89.7583 235.135 90.5558 236.969 92.1509C238.804 93.7345 239.846 95.922 240.097 98.7134H234.115C234.07 97.1981 233.688 96.11 232.97 95.4492C232.252 94.7884 231.159 94.458 229.689 94.458C228.196 94.458 227.103 95.0163 226.408 96.1328C225.713 97.2493 225.348 99.0324 225.314 101.482V103.242C225.314 105.897 225.644 107.794 226.305 108.933C226.977 110.072 228.128 110.642 229.757 110.642C231.136 110.642 232.19 110.317 232.919 109.668C233.648 109.019 234.035 107.987 234.081 106.575H240.045Z" fill="#FCF7F8"/>
<path d="M263.942 105.737L261.481 108.438V115H255.482V90.1172H261.481V101.089L263.566 97.9272L268.932 90.1172H276.349L267.941 101.123L276.349 115H269.24L263.942 105.737Z" fill="#FCF7F8"/>
<path d="M305.902 104.456H296.469V110.386H307.611V115H290.47V90.1172H307.645V94.7485H296.469V99.9951H305.902V104.456Z" fill="#FCF7F8"/>
<path d="M331.901 106.216H328.653V115H322.655V90.1172H332.447C335.398 90.1172 337.705 90.7723 339.369 92.0825C341.032 93.3927 341.864 95.2441 341.864 97.6367C341.864 99.3685 341.511 100.804 340.804 101.943C340.109 103.083 339.016 104.006 337.523 104.712L342.718 114.744V115H336.293L331.901 106.216ZM328.653 101.584H332.447C333.587 101.584 334.441 101.288 335.011 100.696C335.592 100.092 335.882 99.2546 335.882 98.1836C335.882 97.1126 335.592 96.2752 335.011 95.6714C334.43 95.0562 333.575 94.7485 332.447 94.7485H328.653V101.584Z" fill="#FCF7F8"/>
</svg>
